<svg width="23" height="18" viewBox="0 0 23 18" fill="none" xmlns="http://www.w3.org/2000/svg">
<path d="M7.71855 17.9381C16.0205 17.9381 20.5613 11.06 20.5613 5.09541C20.5613 4.90005 20.5613 4.70557 20.5481 4.51197C21.4314 3.87301 22.194 3.08186 22.8 2.17557C21.9763 2.54077 21.1024 2.78016 20.2075 2.88573C21.1498 2.32169 21.855 1.43444 22.1919 0.389165C21.3059 0.914973 20.3366 1.28551 19.3257 1.48477C18.6452 0.761128 17.7451 0.281953 16.7648 0.121393C15.7845 -0.0391676 14.7786 0.127837 13.9028 0.596564C13.027 1.06529 12.33 1.80961 11.9198 2.71434C11.5096 3.61906 11.4091 4.63376 11.6337 5.60141C9.83914 5.51139 8.0836 5.04502 6.48099 4.23257C4.87838 3.42012 3.46452 2.27975 2.33119 0.885485C1.75399 1.87915 1.5772 3.05544 1.83683 4.17487C2.09645 5.2943 2.77297 6.27269 3.72863 6.91085C3.01028 6.8898 2.30758 6.69601 1.67999 6.34589V6.40309C1.68027 7.4452 2.04102 8.45513 2.70104 9.26159C3.36105 10.068 4.27971 10.6214 5.30119 10.8277C4.63668 11.009 3.93946 11.0355 3.26311 10.9052C3.55165 11.802 4.11321 12.5862 4.86929 13.1482C5.62537 13.7102 6.53816 14.0219 7.48007 14.0397C6.54422 14.7753 5.47253 15.3192 4.32629 15.6402C3.18005 15.9613 1.98177 16.0531 0.799988 15.9106C2.86417 17.2352 5.26592 17.9378 7.71855 17.9346" fill="#fc4731"/>
</svg>
