<svg width="23" height="22" viewBox="0 0 23 22" fill="none" xmlns="http://www.w3.org/2000/svg">
<g clip-path="url(#clip0_1_90)">
<path d="M11.8 1.98086C14.7391 1.98086 15.0871 1.99375 16.243 2.04531C17.3172 2.09258 17.8973 2.27305 18.284 2.42344C18.7953 2.62109 19.1648 2.86172 19.5473 3.24414C19.934 3.63086 20.1703 3.99609 20.368 4.50742C20.5184 4.89414 20.6988 5.47852 20.7461 6.54844C20.7976 7.70859 20.8105 8.05664 20.8105 10.9914C20.8105 13.9305 20.7976 14.2785 20.7461 15.4344C20.6988 16.5086 20.5184 17.0887 20.368 17.4754C20.1703 17.9867 19.9297 18.3563 19.5473 18.7387C19.1605 19.1254 18.7953 19.3617 18.284 19.5594C17.8973 19.7098 17.3129 19.8902 16.243 19.9375C15.0828 19.9891 14.7348 20.002 11.8 20.002C8.86093 20.002 8.51288 19.9891 7.35702 19.9375C6.2828 19.8902 5.70272 19.7098 5.316 19.5594C4.80468 19.3617 4.43514 19.1211 4.05272 18.7387C3.666 18.352 3.42968 17.9867 3.23202 17.4754C3.08163 17.0887 2.90116 16.5043 2.85389 15.4344C2.80233 14.2742 2.78944 13.9262 2.78944 10.9914C2.78944 8.05234 2.80233 7.7043 2.85389 6.54844C2.90116 5.47422 3.08163 4.89414 3.23202 4.50742C3.42968 3.99609 3.6703 3.62656 4.05272 3.24414C4.43944 2.85742 4.80468 2.62109 5.316 2.42344C5.70272 2.27305 6.2871 2.09258 7.35702 2.04531C8.51288 1.99375 8.86093 1.98086 11.8 1.98086ZM11.8 0C8.81366 0 8.43983 0.0128906 7.26679 0.0644531C6.09804 0.116016 5.29452 0.305078 4.59843 0.575781C3.87225 0.859375 3.2578 1.2332 2.64764 1.84766C2.03319 2.45781 1.65936 3.07227 1.37577 3.79414C1.10507 4.49453 0.916003 5.29375 0.864441 6.4625C0.812878 7.63984 0.799988 8.01367 0.799988 11C0.799988 13.9863 0.812878 14.3602 0.864441 15.5332C0.916003 16.702 1.10507 17.5055 1.37577 18.2016C1.65936 18.9277 2.03319 19.5422 2.64764 20.1523C3.2578 20.7625 3.87225 21.1406 4.59413 21.4199C5.29452 21.6906 6.09374 21.8797 7.26249 21.9312C8.43554 21.9828 8.80936 21.9957 11.7957 21.9957C14.782 21.9957 15.1558 21.9828 16.3289 21.9312C17.4976 21.8797 18.3012 21.6906 18.9973 21.4199C19.7191 21.1406 20.3336 20.7625 20.9437 20.1523C21.5539 19.5422 21.932 18.9277 22.2113 18.2059C22.482 17.5055 22.6711 16.7063 22.7226 15.5375C22.7742 14.3645 22.7871 13.9906 22.7871 11.0043C22.7871 8.01797 22.7742 7.64414 22.7226 6.47109C22.6711 5.30234 22.482 4.49883 22.2113 3.80273C21.9406 3.07227 21.5668 2.45781 20.9523 1.84766C20.3422 1.2375 19.7277 0.859375 19.0058 0.580078C18.3055 0.309375 17.5062 0.120313 16.3375 0.06875C15.1601 0.0128906 14.7863 0 11.8 0Z" fill="#A7A7A7"/>
<path d="M11.8 5.34961C8.68046 5.34961 6.1496 7.88047 6.1496 11C6.1496 14.1195 8.68046 16.6504 11.8 16.6504C14.9195 16.6504 17.4504 14.1195 17.4504 11C17.4504 7.88047 14.9195 5.34961 11.8 5.34961ZM11.8 14.6652C9.77616 14.6652 8.13475 13.0238 8.13475 11C8.13475 8.97617 9.77616 7.33477 11.8 7.33477C13.8238 7.33477 15.4652 8.97617 15.4652 11C15.4652 13.0238 13.8238 14.6652 11.8 14.6652Z" fill="#A7A7A7"/>
<path d="M18.993 5.12618C18.993 5.85665 18.4 6.44532 17.6738 6.44532C16.9433 6.44532 16.3547 5.85235 16.3547 5.12618C16.3547 4.39571 16.9476 3.80704 17.6738 3.80704C18.4 3.80704 18.993 4.40001 18.993 5.12618Z" fill="#A7A7A7"/>
</g>
<defs>
<clipPath id="clip0_1_90">
<rect width="22" height="22" fill="white" transform="translate(0.799988)"/>
</clipPath>
</defs>
</svg>
