<svg width="242" height="50" viewBox="0 0 242 50" fill="none" xmlns="http://www.w3.org/2000/svg">
<path d="M26.6036 19.4668H13.8049L9.721 8.57028H4.88375V6.12871H11.4136L15.4976 17.0252H26.6036V19.4668Z" fill="#FC4731"/>
<path d="M26.6396 6.12871H16.125V8.57028H26.6396V6.12871Z" fill="#FC4731"/>
<path d="M24.6339 50H7.11079C3.18545 49.9956 0.00444179 46.8145 0 42.8892V7.11079C0.00444179 3.18545 3.18545 0.00444179 7.11079 0H24.6339C28.559 0.00478336 31.7396 3.18569 31.7441 7.11079V42.8892C31.7396 46.8143 28.559 49.9952 24.6339 50ZM7.11079 2.44156C4.53332 2.44464 2.44464 4.53332 2.44156 7.11079V42.8892C2.44464 45.4667 4.53332 47.5554 7.11079 47.5584H24.6339C27.2113 47.5554 29.2998 45.4666 29.3025 42.8892V7.11079C29.2998 4.53342 27.2113 2.44464 24.6339 2.44156H7.11079Z" fill="#FC4731"/>
<path d="M8.31484 37.6341H10.966C11.2053 39.9405 13.1682 41.5289 15.7598 41.5289C18.6961 41.5289 20.7335 39.4916 20.7335 36.585C20.7335 33.7237 18.6806 31.6715 15.8045 31.6715C13.7522 31.6715 12.1043 32.5104 11.1011 34.2482H8.71908L9.82764 21.9189H26.6036V24.3158H12.0448L11.3107 31.5816H11.3727C12.3913 30.1283 14.1893 29.3496 16.2862 29.3496C20.4359 29.3496 23.4323 32.361 23.4323 36.51C23.4298 40.8544 20.2387 43.8961 15.7301 43.8961C11.594 43.8961 8.53928 41.3187 8.31484 37.6341ZM59.7681 41.2921C63.6114 41.2921 66.9228 40.4783 69.7024 38.8509C72.4821 37.2234 74.6316 34.9118 76.151 31.9162C77.6704 28.9206 78.4302 25.375 78.4302 21.2795V21.2258C78.4302 17.1124 77.6704 13.5668 76.151 10.5891C74.6316 7.61131 72.4776 5.3087 69.689 3.68122C66.9005 2.05374 63.5935 1.24 59.7681 1.24C55.9606 1.24 52.6581 2.04927 49.8606 3.66781C47.0631 5.28634 44.9046 7.58896 43.3852 10.5757C41.8658 13.5623 41.1061 17.1124 41.1061 21.2258V21.2795C41.1061 25.375 41.8613 28.9206 43.3718 31.9162C44.8823 34.9118 47.0363 37.2234 49.8338 38.8509C52.6313 40.4783 55.9428 41.2921 59.7681 41.2921ZM59.7681 34.4101C57.6384 34.4101 55.795 33.8741 54.238 32.8022C52.6809 31.7303 51.4774 30.2118 50.6273 28.2467C49.7771 26.2816 49.3521 23.9592 49.3521 21.2794V21.2258C49.3521 18.5104 49.7771 16.1746 50.6273 14.2184C51.4774 12.2622 52.6854 10.7571 54.2514 9.70305C55.8174 8.64903 57.6563 8.12202 59.7681 8.12202C61.88 8.12202 63.7189 8.65349 65.2849 9.71645C66.8508 10.7794 68.0589 12.289 68.909 14.2452C69.7591 16.2014 70.1841 18.5283 70.1841 21.2258V21.2794C70.1841 23.9413 69.7636 26.2548 68.9224 28.2199C68.0813 30.185 66.8822 31.708 65.3251 32.7888C63.7681 33.8697 61.9158 34.4101 59.7681 34.4101ZM90.7831 49.9721V35.6918H90.9439C91.48 36.8349 92.1769 37.8129 93.0347 38.6256C93.8924 39.4383 94.9021 40.0679 96.0636 40.5144C97.2251 40.961 98.4849 41.1842 99.843 41.1842C102.255 41.1842 104.328 40.5859 106.062 39.3891C107.795 38.1924 109.131 36.4777 110.069 34.245C111.007 32.0123 111.476 29.342 111.476 26.2341V26.2073C111.476 23.0994 111.003 20.4291 110.056 18.1964C109.108 15.9637 107.759 14.2535 106.008 13.0657C104.257 11.8779 102.166 11.284 99.7358 11.284C98.3777 11.284 97.1313 11.5073 95.9966 11.9538C94.8619 12.4004 93.8701 13.0434 93.0213 13.8829C92.1725 14.7224 91.489 15.7226 90.9707 16.8836H90.7831V11.8735H82.9562V49.9721H90.7831ZM97.181 34.7201C95.911 34.7201 94.7974 34.3764 93.8404 33.689C92.8834 33.0016 92.1321 32.024 91.5866 30.7564C91.041 29.4887 90.7682 27.9979 90.7682 26.2838V26.2571C90.7682 24.5073 91.0365 23.0031 91.5731 21.7443C92.1098 20.4856 92.8611 19.5125 93.827 18.8251C94.793 18.1377 95.911 17.794 97.181 17.794C98.469 17.794 99.5914 18.1288 100.548 18.7983C101.505 19.4679 102.243 20.4365 102.762 21.7042C103.281 22.9718 103.54 24.4805 103.54 26.2303V26.2571C103.54 27.9889 103.281 29.4887 102.762 30.7564C102.243 32.024 101.51 33.0016 100.562 33.689C99.6138 34.3764 98.4868 34.7201 97.181 34.7201ZM126.975 41.1681C127.798 41.1681 128.527 41.1368 129.162 41.0743C129.797 41.0118 130.329 40.9448 130.758 40.8734V35.1395C130.526 35.1753 130.275 35.2065 130.007 35.2333C129.739 35.2601 129.425 35.2735 129.068 35.2735C127.887 35.2735 126.997 35.01 126.398 34.4831C125.798 33.9561 125.499 33.0228 125.499 31.6832V17.7505H130.758V11.8559H125.499V4.83601H117.583V11.8559H113.584V17.7505H117.583V32.5406C117.583 35.6129 118.352 37.8189 119.89 39.1586C121.429 40.4982 123.79 41.1681 126.975 41.1681ZM139.097 8.18402C140.278 8.18402 141.27 7.78326 142.075 6.98174C142.88 6.18023 143.282 5.22732 143.282 4.12301C143.282 3.00089 142.88 2.04352 142.075 1.25091C141.27 0.458305 140.278 0.0620001 139.097 0.0620001C137.917 0.0620001 136.924 0.458305 136.119 1.25091C135.315 2.04352 134.912 3.00089 134.912 4.12301C134.912 5.22732 135.315 6.18023 136.119 6.98174C136.924 7.78326 137.917 8.18402 139.097 8.18402ZM143.034 40.6101V11.842H135.222V40.6101H143.034ZM161.417 41.2301C164.311 41.2301 166.821 40.6353 168.947 39.4457C171.073 38.2561 172.721 36.5432 173.891 34.3071C175.061 32.0709 175.646 29.3876 175.646 26.2571V26.2034C175.646 23.0907 175.057 20.4208 173.878 18.1936C172.699 15.9664 171.042 14.2581 168.907 13.0684C166.772 11.8788 164.267 11.284 161.391 11.284C158.532 11.284 156.04 11.8833 153.914 13.0819C151.788 14.2804 150.136 15.9933 148.957 18.2205C147.778 20.4476 147.188 23.1086 147.188 26.2034V26.2571C147.188 29.3697 147.769 32.0441 148.93 34.2802C150.091 36.5163 151.735 38.2337 153.861 39.4322C155.987 40.6308 158.505 41.2301 161.417 41.2301ZM161.475 35.0921C160.191 35.0921 159.076 34.7474 158.13 34.0582C157.184 33.3689 156.457 32.3664 155.949 31.0505C155.441 29.7347 155.186 28.1368 155.186 26.2571V26.2033C155.186 24.3415 155.445 22.7571 155.962 21.4502C156.48 20.1433 157.207 19.1452 158.143 18.4559C159.08 17.7667 160.173 17.422 161.422 17.422C162.688 17.422 163.794 17.7667 164.74 18.4559C165.685 19.1452 166.417 20.1433 166.934 21.4502C167.452 22.7571 167.71 24.3415 167.71 26.2033V26.2571C167.71 28.1368 167.456 29.7347 166.948 31.0505C166.439 32.3664 165.717 33.3689 164.78 34.0582C163.843 34.7474 162.742 35.0921 161.475 35.0921ZM187.5 40.6101V24.0974C187.5 22.8286 187.737 21.7206 188.21 20.7734C188.684 19.8263 189.349 19.0891 190.206 18.5619C191.064 18.0347 192.073 17.7711 193.234 17.7711C194.985 17.7711 196.302 18.2849 197.186 19.3125C198.07 20.3401 198.513 21.7921 198.513 23.6685V40.6101H206.336V22.0601C206.336 18.6826 205.475 16.0421 203.751 14.1389C202.027 12.2356 199.584 11.284 196.423 11.284C194.261 11.284 192.448 11.7576 190.983 12.7048C189.519 13.6519 188.411 14.9475 187.661 16.5917H187.5V11.8738H179.676V40.6101H187.5ZM226.352 41.2921C229.299 41.2921 231.899 40.7199 234.15 39.5757C236.401 38.4314 238.156 36.8402 239.415 34.8019C240.675 32.7637 241.304 30.3947 241.304 27.6949V27.6413C241.304 25.2097 240.76 23.0463 239.67 21.1511C238.58 19.2559 237.088 17.7675 235.195 16.6858C233.301 15.6041 231.122 15.0632 228.656 15.0632C226.691 15.0632 224.949 15.4342 223.431 16.1762C221.912 16.9182 220.751 17.9418 219.947 19.247H219.786L220.724 8.35853H238.973V1.922H214.293L212.524 24.6376H219.572C219.786 24.2264 220.054 23.8419 220.376 23.4844C220.697 23.1268 221.046 22.796 221.421 22.4921C222.082 21.9557 222.832 21.5489 223.672 21.2718C224.512 20.9947 225.423 20.8561 226.405 20.8561C227.799 20.8561 229.036 21.1511 230.117 21.7411C231.197 22.3312 232.046 23.1491 232.662 24.1951C233.279 25.241 233.587 26.4434 233.587 27.8022V27.8558C233.587 29.2325 233.279 30.4483 232.662 31.5032C232.046 32.5581 231.197 33.385 230.117 33.9839C229.036 34.5829 227.79 34.8824 226.378 34.8824C225.146 34.8824 224.038 34.6544 223.056 34.1985C222.073 33.7426 221.265 33.1213 220.63 32.3346C219.996 31.5479 219.581 30.6718 219.384 29.7063L219.331 29.5186H211.854L211.881 29.9209C212.042 32.0664 212.739 33.9974 213.971 35.7138C215.204 37.4302 216.874 38.789 218.982 39.7902C221.09 40.7915 223.547 41.2921 226.352 41.2921Z" fill="#FC4731"/>
</svg>
